<?xml version="1.0" encoding="utf-8"?>
<!-- Svg Vector Icons : http://www.onlinewebfonts.com/icon -->
<!DOCTYPE svg PUBLIC "-//W3C//DTD SVG 1.1//EN" "http://www.w3.org/Graphics/SVG/1.1/DTD/svg11.dtd">
<svg version="1.1" xmlns="http://www.w3.org/2000/svg" xmlns:xlink="http://www.w3.org/1999/xlink" x="0px" y="0px" viewBox="0 0 1000 1000" enable-background="new 0 0 1000 1000" xml:space="preserve">
<metadata> Svg Vector Icons : http://www.onlinewebfonts.com/icon </metadata>
<g><g transform="translate(0.000000,512.000000) scale(0.100000,-0.100000)"><path d="M1759,5000.3c-57.4-9.6-164.7-46-239.4-82.3c-235.5-113-369.6-262.3-453.8-505.5l-44-128.3V128.9c0-3998.2,1.9-4160.9,36.4-4285.4c63.2-229.8,204.9-406,413.6-511.3c218.3-111,0-103.4,3437.1-111c2154.2-3.8,3201.6,1.9,3293.5,15.3c398.3,59.4,700.8,354.2,756.4,737.2c24.9,185.8,26.8,8111.3,0,8281.7c-42.1,271.9-239.4,540-482.5,658.7c-225.9,111.1-91.9,107.2-3490.8,105.3C3231.5,5017.5,1818.4,5009.8,1759,5000.3z M3463.2,3795.8v-612.7h-919.1h-921l5.8,566.8l5.7,566.8l53.6,46l53.6,46h861.7h859.8V3795.8z M8267.6,4381.8c91.9-47.9,97.6-86.2,97.6-662.5v-536.2H6220.6H4076v612.7v612.7h2068C7898,4408.6,8221.6,4404.7,8267.6,4381.8z M8365.2-744.3v-3314.6l-55.5-55.5l-55.5-55.5H4989.3c-3186.3,0-3264.8,0-3308.9,36.4l-46,36.4l-5.7,3333.7l-3.8,3333.7h3370.1h3370.1V-744.3z"/><path d="M4891.7,4083c-193.4-59.4-262.3-331.3-122.6-490.2c151.3-170.4,455.7-105.3,515.1,111.1C5351.2,3952.8,5140.6,4155.8,4891.7,4083z"/><path d="M6117.2,4083c-193.4-59.4-262.3-331.3-122.5-490.2c151.3-170.4,455.7-105.3,515.1,111.1C6576.7,3952.8,6366.1,4155.8,6117.2,4083z"/><path d="M7342.7,4083c-193.4-59.4-262.3-331.3-122.5-490.2c151.3-170.4,455.7-105.3,515.1,111.1C7802.2,3952.8,7591.6,4155.8,7342.7,4083z"/><path d="M4732.7,1938.4C3649,1815.9,2712.6,1048,2373.7,4.4c-166.6-509.3-166.6-1099.1,0-1608.5c277.7-852.1,974.6-1547.2,1822.9-1817.2c285.3-91.9,501.7-122.5,817.6-122.5c614.7,1.9,1187.2,210.6,1687,616.6c517,417.5,859.8,980.4,995.7,1637.2c51.7,248.9,57.5,668.3,11.5,924.9c-80.4,444.2-285.3,900-563,1244.7c-423.2,532.3-1003.4,888.5-1650.6,1020.6C5278.5,1944.2,4928.1,1961.4,4732.7,1938.4z M5552.3,1281.6c528.5-137.9,963.2-444.2,1242.7-877c134-206.8,214.5-390.6,283.4-647.2c46-168.5,49.8-216.4,49.8-557.2c0-340.8-3.8-388.7-49.8-557.2c-107.2-394.4-285.3-710.4-551.5-976.6c-262.3-262.3-584-444.2-974.7-549.5c-168.5-46-216.4-49.8-557.2-49.8s-388.7,3.8-557.2,49.8c-536.2,145.5-963.2,448.1-1242.7,878.9c-222.1,344.7-323.6,672.1-338.9,1101c-24.9,654.9,168.5,1191,587.9,1616.1c314,321.7,685.5,517,1141.2,603.2C4826.6,1360.1,5316.8,1342.9,5552.3,1281.6z"/><path d="M4767.2,1019.3C4020.4,915.9,3377,318.5,3202.8-432.1c-44-185.8-46-438.5-3.8-515.1c74.7-135.9,279.6-189.6,417.4-109.2c103.4,59.4,136,134,155.1,360c28.7,337,134,584,335.1,785.1c201.1,201.1,448.1,306.4,785.1,335.1c226,19.2,300.6,51.7,360,155.1c80.4,136,26.8,344.7-107.2,413.6C5071.7,1030.8,4924.2,1040.4,4767.2,1019.3z"/></g></g>
</svg>