<?xml version="1.0" standalone="no"?>
<!DOCTYPE svg PUBLIC "-//W3C//DTD SVG 20010904//EN"
 "http://www.w3.org/TR/2001/REC-SVG-20010904/DTD/svg10.dtd">
<svg version="1.0" xmlns="http://www.w3.org/2000/svg"
 width="200.000000pt" height="200.000000pt" viewBox="0 0 200.000000 200.000000"
 preserveAspectRatio="xMidYMid meet">
<metadata>
Created by potrace 1.15, written by Peter Selinger 2001-2017
</metadata>
<g transform="translate(0.000000,200.000000) scale(0.100000,-0.100000)"
fill="#000000" stroke="none">
<path d="M239 1441 c-23 -18 -24 -26 -27 -160 l-4 -141 39 0 c55 0 110 -18
133 -42 17 -18 20 -36 20 -110 l0 -88 296 0 295 0 -3 261 c-3 260 -3 261 -27
280 -22 18 -43 19 -361 19 -318 0 -339 -1 -361 -19z"/>
<path d="M1039 1441 c-24 -19 -24 -20 -27 -280 l-3 -261 296 0 295 0 0 90 c0
76 3 93 19 109 23 23 81 41 134 41 l39 0 -4 141 c-3 134 -4 142 -27 160 -22
18 -43 19 -361 19 -318 0 -339 -1 -361 -19z"/>
<path d="M30 1097 l-25 -13 -3 -255 c-2 -229 -1 -258 14 -270 11 -9 49 -15
103 -17 l86 -4 -3 154 c-4 192 0 200 102 206 l67 4 -3 91 c-3 86 -4 92 -28
104 -34 17 -276 17 -310 0z"/>
<path d="M1660 1097 c-24 -12 -25 -18 -28 -103 l-3 -91 48 -6 c79 -9 85 -22
81 -205 l-3 -154 106 4 c71 2 111 8 122 17 15 12 17 43 17 266 0 222 -2 254
-17 266 -23 20 -288 25 -323 6z"/>
<path d="M242 858 c-17 -17 -17 -289 0 -306 17 -17 1459 -17 1476 0 17 17 17
289 0 306 -17 17 -1459 17 -1476 0z"/>
</g>
</svg>
